# xmcd
#
# Track frame offsets: 
#        150
#        16547
#        34152
#        52437
#        72467
#        85862
#        106860
#        133940
#        153600
#        171925
#        187000
#        248300
#        269712
#        291740
#        307167
#
# Disc length: 4376 seconds
#
# Revision: 2
# Processed by: cddbd v1.5.2PL0 Copyright (c) Steve Scherf et al.
# Submitted via: ExactAudioCopy v0.99pb5
#
DISCID=e611160f
DTITLE=Temptations - A Song For You and Masterpiece
DYEAR=2000
DGENRE=Rhythmic Soul
TTITLE0=Happy People
TTITLE1=Glasshouse
TTITLE2=Shakey Ground
TTITLE3=The Prophet
TTITLE4=Happy People (Instrumental)
TTITLE5=A Song For You
TTITLE6=Memories
TTITLE7=I'm A Bachelor
TTITLE8=Firefly
TTITLE9=Hey Girl
TTITLE10=Masterpiece
TTITLE11=Ma
TTITLE12=Law Of The Land
TTITLE13=Plastic Man
TTITLE14=Hurry Tomorrow
EXTD=YEAR: 2000
EXTT0=
EXTT1=
EXTT2=
EXTT3=
EXTT4=
EXTT5=
EXTT6=
EXTT7=
EXTT8=
EXTT9=
EXTT10=
EXTT11=
EXTT12=
EXTT13=
EXTT14=
PLAYORDER=
